HIERARCHY
ROOT root
{
	OFFSET	0	13.1	24.9
	CHANNELS 6  Xposition Yposition Zposition Xrotation Yrotation Zrotation
	JOINT spine_1
	{
		OFFSET	0	9.99999	0
		CHANNELS 3  Xrotation Yrotation Zrotation
		JOINT spine_2
		{
			OFFSET	0	112	-10
			CHANNELS 3  Xrotation Yrotation Zrotation
			JOINT spine_3
			{
				OFFSET	0	206.5	19.3
				CHANNELS 3  Xrotation Yrotation Zrotation
				JOINT spine_4
				{
					OFFSET	0	110.4	14.6
					CHANNELS 3  Xrotation Yrotation Zrotation
					JOINT neck_1
					{
						OFFSET	0	71.8	-50.3
						CHANNELS 3  Xrotation Yrotation Zrotation
						JOINT neck_2
						{
							OFFSET	0	86.2	-25.8
							CHANNELS 3  Xrotation Yrotation Zrotation
							JOINT head_ee
							{
								OFFSET	0	179.8	-8.7
								CHANNELS 3  Xrotation Yrotation Zrotation
								End Site
								{
									OFFSET	1	0	0
								}
							}
						}
					}
					JOINT left_clavicle
					{
						OFFSET	-43.2	22.4	-70.8
						CHANNELS 3  Xrotation Yrotation Zrotation
						JOINT left_shoulder
						{
							OFFSET	-93.9	-5.79999	48.7
							CHANNELS 3  Xrotation Yrotation Zrotation
							JOINT left_elbow
							{
								OFFSET	-291.4	-30.8	15.2
								CHANNELS 3  Xrotation Yrotation Zrotation
								JOINT left_lowarm_twist
								{
									OFFSET	-110.7	-3.89999	13.6
									CHANNELS 3  Xrotation Yrotation Zrotation
									JOINT left_hand
									{
										OFFSET	-110.7	-3.89999	13.6
										CHANNELS 3  Xrotation Yrotation Zrotation
										JOINT left_ee
										{
											OFFSET	-80.8	-5.10001	12.1
											CHANNELS 3  Xrotation Yrotation Zrotation
											End Site
											{
												OFFSET	1	0	0
											}
										}
									}
								}
							}
						}
					}
					JOINT right_clavicle
					{
						OFFSET	43.2	22.4	-70.8
						CHANNELS 3  Xrotation Yrotation Zrotation
						JOINT right_shoulder
						{
							OFFSET	93.9	-5.79999	48.7
							CHANNELS 3  Xrotation Yrotation Zrotation
							JOINT right_elbow
							{
								OFFSET	291.4	-30.8	15.2
								CHANNELS 3  Xrotation Yrotation Zrotation
								JOINT right_lowarm_twist
								{
									OFFSET	110.7	-3.89999	13.6
									CHANNELS 3  Xrotation Yrotation Zrotation
									JOINT right_hand
									{
										OFFSET	110.7	-3.89999	13.6
										CHANNELS 3  Xrotation Yrotation Zrotation
										JOINT right_ee
										{
											OFFSET	80.8	-5.10001	12.1
											CHANNELS 3  Xrotation Yrotation Zrotation
											End Site
											{
												OFFSET	1	0	0
											}
										}
									}
								}
							}
						}
					}
				}
			}
		}
	}
	JOINT left_hip
	{
		OFFSET	-82.8	-127.5	0.300001
		CHANNELS 3  Xrotation Yrotation Zrotation
		JOINT left_knee
		{
			OFFSET	-28.2	-396.7	2.2
			CHANNELS 3  Xrotation Yrotation Zrotation
			JOINT left_ankle
			{
				OFFSET	-11.7	-411.3	35.4
				CHANNELS 3  Xrotation Yrotation Zrotation
				JOINT left_toes
				{
					OFFSET	0	-60	-88.6
					CHANNELS 3  Xrotation Yrotation Zrotation
					JOINT left_foot_ee
					{
						OFFSET	-22.5	-16.5	-42.2
						CHANNELS 3  Xrotation Yrotation Zrotation
						End Site
						{
							OFFSET	1	0	0
						}
					}
				}
			}
		}
	}
	JOINT right_hip
	{
		OFFSET	82.8	-127.5	0.300001
		CHANNELS 3  Xrotation Yrotation Zrotation
		JOINT right_knee
		{
			OFFSET	28.2	-396.7	2.2
			CHANNELS 3  Xrotation Yrotation Zrotation
			JOINT right_ankle
			{
				OFFSET	11.7	-411.3	35.4
				CHANNELS 3  Xrotation Yrotation Zrotation
				JOINT right_toes
				{
					OFFSET	0	-60	-88.6
					CHANNELS 3  Xrotation Yrotation Zrotation
					JOINT right_foot_ee
					{
						OFFSET	22.5	-16.5	-42.2
						CHANNELS 3  Xrotation Yrotation Zrotation
						End Site
						{
							OFFSET	1	0	0
						}
					}
				}
			}
		}
	}
}
MOTION
Frames: 13
Frame Time: 0.02
427.54 733.665 -1278.88 -177.101 -41.5683 178.358 0.0842864 0.300091 2.26578 0.0871292 0.155344 2.28028 0.0946983 -0.323774 2.26252 0.0875565 0.0375159 2.28525 -2.37218 11.1918 1.13636 -2.1926 19.3913 2.6974 -0.0 0.0 -0.0 -0.625398 19.065 1.29334 3.16059 -9.62119 72.3616 1.52091 -36.9924 0.508805 -10.6087 -0.49222 1.26195 -0.617248 10.118 0.236831 -0.0 0.0 -0.0 10.1618 16.8663 -19.9633 -7.07817 23.8274 -63.7234 0.868623 23.2815 -0.17895 1.68442 -0.056296 0.207763 1.05807 -1.80436 -7.81367 0.0 0.0 0.0 12.4877 17.7546 0.184558 -22.1698 0.263553 3.37074 37.9957 24.2007 -4.94705 -14.9518 0.0 0.0 -0.0 0.0 -0.0 4.47005 22.8852 8.86721 -0.872433 -0.0349386 -0.129326 14.7687 -21.0997 2.12118 -22.3523 0.0 0.0 0.0 0.0 0.0 
433.959 730.34 -1276.97 -176.79 -40.8841 178.694 0.0851952 0.476732 2.26356 0.0879846 0.331768 2.28929 0.10281 -0.152647 2.30816 0.0954389 0.213699 2.30331 0.0868736 10.3143 0.563178 0.319971 17.928 1.65775 -0.0 0.0 -0.0 -1.28652 18.2986 0.192083 4.238 -9.70585 73.2144 1.40921 -34.9163 0.443212 -8.3206 -0.366373 0.997715 -0.47936 9.99168 1.0658 -0.0 0.0 -0.0 10.1944 17.3856 -20.0074 -6.37893 23.8904 -64.3439 0.796546 21.5334 -0.151472 5.86558 -0.169425 0.729763 0.638623 -5.88104 -6.64885 0.0 0.0 0.0 11.767 10.8641 2.09764 -21.7821 0.270208 3.31161 41.1849 28.1833 -5.39764 -16.5525 0.0 0.0 -0.0 0.0 -0.0 5.28974 20.7068 8.19156 0.254061 0.0105451 0.0375616 15.7153 -28.1632 2.33629 -20.5978 0.0 0.0 0.0 0.0 0.0 
438.919 731.91 -1276.47 -176.717 -39.1846 178.823 0.190655 0.727184 2.27986 0.193359 0.580677 2.32149 0.218626 0.0891343 2.39131 0.210949 0.465573 2.34727 1.49767 10.4246 1.59699 1.73908 17.0668 2.63136 -0.0 0.0 -0.0 -1.99936 18.7028 -0.821935 5.75533 -4.18636 75.6907 1.4062 -34.8586 0.441485 -7.26127 -0.311714 0.87375 -0.658942 10.1633 -0.0104656 -0.0 0.0 -0.0 10.4882 18.4895 -20.6006 -6.54428 24.3284 -64.6899 0.731283 19.9132 -0.128376 5.20068 -0.153988 0.646229 0.0291241 -7.88004 -3.46768 0.0 0.0 0.0 10.2966 4.4432 3.91593 -22.2003 0.263013 3.37539 42.6928 29.3459 -5.59059 -14.5142 0.0 0.0 -0.0 0.0 -0.0 4.82246 23.3478 8.39921 -0.403459 -0.0164026 -0.0597423 17.3919 -27.5722 2.55974 -19.6447 0.0 0.0 0.0 0.0 0.0 
439.833 731.063 -1277.66 -175.487 -40.1961 -179.727 0.276042 0.582217 2.25535 0.278766 0.437562 2.28781 0.297745 -0.0408519 2.32889 0.290325 0.327367 2.30615 3.18969 10.4993 2.23753 3.44712 16.3836 3.18531 -0.0 0.0 -0.0 -1.24779 17.3572 0.112385 4.33481 -10.3886 73.5965 1.34176 -33.609 0.405232 -6.98847 -0.298011 0.841667 0.632011 10.0444 8.23448 -0.0 0.0 -0.0 10.7849 18.4071 -21.2739 -8.75936 25.4673 -63.0871 0.870283 23.3212 -0.179607 5.38881 -0.158455 0.669847 0.316984 -7.65165 -5.24725 0.0 0.0 0.0 11.2586 5.55216 2.18279 -21.7833 0.270188 3.3118 42.0126 26.2314 -5.40071 -17.819 0.0 0.0 -0.0 0.0 -0.0 6.03287 23.1174 7.66036 -0.588991 -0.0238042 -0.0872525 16.2116 -26.9688 2.38747 -20.4947 0.0 0.0 0.0 0.0 0.0 
443.586 730.367 -1282.59 -175.482 -40.4377 179.597 0.118015 0.619741 2.3449 0.120951 0.469316 2.37956 0.142226 -0.0351507 2.42511 0.134188 0.34818 2.40026 4.06369 10.4685 1.99999 4.34124 16.3873 2.84099 -0.0 0.0 -0.0 -1.11383 17.118 0.284558 4.59268 -10.8464 73.9664 1.40182 -34.7749 0.438985 -6.09056 -0.253992 0.735617 0.914028 9.6351 9.91206 -0.0 0.0 -0.0 10.388 19.7461 -20.2916 -8.27431 25.7239 -63.6152 0.951494 25.2361 -0.213003 5.89498 -0.170085 0.73346 0.477326 -6.97558 -6.02453 0.0 0.0 0.0 11.5015 3.41763 3.97226 -22.3009 0.261214 3.39072 41.2767 27.0498 -5.36212 -18.4404 0.0 0.0 -0.0 0.0 -0.0 4.35345 24.2415 9.48458 0.890467 0.0376909 0.131447 15.0218 -21.7194 2.16126 -20.6689 0.0 0.0 0.0 0.0 0.0 
449.164 730.922 -1289.53 -173.959 -38.9227 -179.403 0.0943257 0.505784 2.30712 0.0972158 0.357992 2.33461 0.113445 -0.13599 2.35797 0.105765 0.238009 2.34987 3.97131 10.5849 2.46366 4.23824 16.2046 3.37992 -0.0 0.0 -0.0 -1.10817 16.545 0.211192 4.27613 -10.7268 74.0718 1.38547 -34.4608 0.4297 -4.85261 -0.196045 0.588318 1.3238 8.13811 12.0461 -0.0 0.0 -0.0 10.2909 17.6197 -20.2103 -6.16513 25.6708 -63.427 0.931266 24.7645 -0.204454 6.97178 -0.192955 0.869109 0.113565 -8.24997 -4.16612 0.0 0.0 0.0 11.9407 2.44464 4.36022 -21.0525 0.281644 3.20024 42.8884 27.0599 -5.51302 -18.7828 0.0 0.0 -0.0 0.0 -0.0 5.97785 24.3243 9.85098 1.60893 0.0695905 0.237075 14.9071 -28.0551 2.22096 -21.1486 0.0 0.0 0.0 0.0 0.0 
450.165 727.664 -1299.17 -173.002 -39.9323 -178.114 0.111385 0.291474 2.34437 0.114431 0.141747 2.35816 0.121706 -0.352242 2.33602 0.114091 0.0210026 2.36232 5.11822 9.72455 0.897879 5.41087 15.8925 1.4607 -0.0 0.0 -0.0 -1.05044 16.3815 0.278216 4.47357 -13.2749 75.1282 1.46711 -36.0061 0.476802 -3.88637 -0.15304 0.472511 1.78696 7.92464 15.0624 -0.0 0.0 -0.0 10.4266 20.4575 -20.3267 -4.79836 22.9647 -63.1736 0.957238 25.3693 -0.215458 8.05926 -0.213459 1.00651 -0.328176 -8.88147 -1.57063 0.0 0.0 0.0 11.4626 1.33733 4.77379 -16.823 0.319934 2.55257 43.2966 26.4571 -5.52669 -16.6868 0.0 0.0 -0.0 0.0 -0.0 6.44674 25.5114 9.99815 2.88435 0.129478 0.423594 14.2663 -28.7105 2.13951 -20.9667 0.0 0.0 0.0 0.0 0.0 
455.348 727.208 -1304.23 -173.209 -39.3191 -179.449 0.00492408 0.378438 2.52045 0.00843212 0.217341 2.53941 0.0199094 -0.320495 2.52847 0.0109972 0.0827181 2.54735 4.10032 10.5844 2.03901 4.38423 16.5487 2.88746 -0.0 0.0 -0.0 -0.386147 15.9604 1.26631 4.3474 -10.7262 74.7464 1.46337 -35.9364 0.474602 -5.40541 -0.221526 0.654246 2.01357 9.26706 17.0737 -0.0 0.0 -0.0 10.8318 20.8652 -21.2097 -4.84846 24.8172 -62.4983 0.892103 23.8414 -0.188336 5.50896 -0.161266 0.684937 -0.66883 -13.3457 -1.28533 0.0 0.0 0.0 10.6996 6.19297 6.24491 -16.5605 0.320733 2.5123 43.106 25.7181 -5.48179 -20.1388 0.0 0.0 -0.0 0.0 -0.0 6.3585 25.1129 11.1673 2.77896 0.124372 0.408232 15.1081 -28.8248 2.26086 -18.5025 0.0 0.0 0.0 0.0 0.0 
458.133 726.542 -1312.03 -172.779 -39.2851 -178.935 0.0624624 0.307041 2.3626 0.0655543 0.156124 2.37734 0.0735507 -0.344147 2.35749 0.0657964 0.0323834 2.38224 4.20718 10.1444 1.44022 4.4886 16.2857 2.17773 -0.0 0.0 -0.0 -1.35377 17.9031 0.030832 5.19992 -16.0978 76.2824 1.51218 -36.8341 0.503562 -4.00106 -0.158042 0.486295 2.50945 6.53956 19.5053 -0.0 0.0 -0.0 10.3141 20.0884 -20.1011 -5.35841 28.769 -61.3772 0.960029 25.4339 -0.216655 6.42914 -0.181748 0.800697 0.0178219 -11.1018 -4.70162 0.0 0.0 0.0 9.50428 6.21208 7.13722 -13.0406 0.313629 1.97238 43.4654 26.0545 -5.52655 -20.8983 0.0 0.0 -0.0 0.0 -0.0 8.15197 26.5474 10.7495 1.19797 0.0511813 0.176703 14.6275 -29.9341 2.20964 -19.2369 0.0 0.0 0.0 0.0 0.0 
463.246 728.685 -1321.31 -173.21 -38.2665 -179.295 -0.0841496 0.333796 2.31522 -0.0811867 0.185837 2.33176 -0.0720107 -0.311426 2.31833 -0.0795063 0.0585166 2.33841 4.21253 10.0516 1.04786 4.50485 16.4633 1.72643 -0.0 0.0 -0.0 -1.41128 16.0002 -0.345273 4.00577 -21.1675 75.9401 1.53825 -37.305 0.519276 -1.16225 -0.0423982 0.142365 3.55293 1.35912 25.044 -0.0 0.0 -0.0 10.498 22.0101 -20.3641 -5.33678 29.0357 -59.9155 0.985367 26.0175 -0.227654 4.26242 -0.130558 0.528667 -0.138107 -11.6658 -3.93648 0.0 0.0 0.0 8.95708 5.5745 7.89097 -12.5645 0.310121 1.89941 43.0431 26.0181 -5.48721 -23.9842 0.0 0.0 -0.0 0.0 -0.0 8.59313 28.2726 11.4738 -1.4341 -0.056387 -0.212853 14.4664 -28.5434 2.16559 -17.8587 0.0 0.0 0.0 0.0 0.0 
470.205 725.649 -1324.05 -172.303 -39.3412 -179.233 -0.132486 0.316655 2.22219 -0.129755 0.174646 2.23782 -0.121417 -0.304414 2.2239 -0.128315 0.0505377 2.24406 5.00481 9.82919 -0.498922 5.37866 17.3063 -0.135945 -0.0 0.0 -0.0 -0.856893 15.1967 0.419355 4.20431 -21.1307 76.1346 1.41698 -35.0642 0.447666 -3.16345 -0.122147 0.385409 2.67075 2.37786 19.0845 -0.0 0.0 -0.0 10.5208 21.6075 -20.4489 -5.84028 29.1429 -59.1064 0.989044 26.1017 -0.229269 2.33853 -0.0765052 0.288868 -0.223957 -12.1924 -3.60668 0.0 0.0 0.0 9.16389 7.48048 8.89841 -12.6574 0.310853 1.91365 42.871 26.7063 -5.49765 -23.6657 0.0 0.0 -0.0 0.0 -0.0 8.197 28.549 13.3503 -2.3673 -0.0902069 -0.352077 17.1637 -28.9048 2.55078 -16.979 0.0 0.0 0.0 0.0 0.0 
481.414 723.268 -1325.32 -172.392 -39.0439 -179.083 -0.234925 0.30365 2.12186 -0.232436 0.168047 2.13687 -0.224713 -0.29325 2.12332 -0.231002 0.0456887 2.14298 5.58276 10.3468 -0.30463 5.99813 17.9432 0.040562 -0.0 0.0 -0.0 -1.41228 16.5236 -0.267566 5.49747 -17.9877 77.6896 1.38266 -34.4066 0.428112 -3.28667 -0.127335 0.400282 3.04978 -0.920236 20.4755 -0.0 0.0 -0.0 10.7389 21.6421 -20.9381 -6.42749 28.8888 -58.5847 0.960079 25.4351 -0.216677 2.38334 -0.0778558 0.294433 -0.0961795 -12.0171 -4.34516 0.0 0.0 0.0 8.5717 10.6134 8.83497 -12.5616 0.310098 1.89897 43.1777 25.3198 -5.47379 -23.9306 0.0 0.0 -0.0 0.0 -0.0 8.55855 27.3666 13.0504 -3.04961 -0.113495 -0.454201 18.5608 -29.5083 2.75546 -16.3656 0.0 0.0 0.0 0.0 0.0 
484.892 722.205 -1323.57 -172.611 -39.2844 -178.762 -0.223318 0.220746 1.98753 -0.221125 0.0938533 1.99754 -0.216649 -0.335649 1.97139 -0.222072 -0.020158 1.99964 5.01642 10.6076 -0.371553 5.44394 18.5334 0.0337441 -0.0 0.0 -0.0 -1.34535 15.2272 -0.356898 4.44142 -22.4031 75.8711 1.47544 -36.1604 0.481708 -3.77073 -0.148024 0.458604 3.08267 -1.2365 20.5827 -0.0 0.0 -0.0 10.8593 20.6685 -21.2869 -6.69819 29.0249 -58.0401 0.962492 25.4909 -0.217714 0.187673 -0.00657491 0.0230665 -0.322008 -12.599 -3.15387 0.0 0.0 0.0 8.35557 8.76541 8.66335 -12.5876 0.310306 1.90295 42.3786 25.2265 -5.3983 -24.5456 0.0 0.0 -0.0 0.0 -0.0 8.83169 28.1274 12.1071 -3.72836 -0.135452 -0.556055 19.5446 -28.582 2.87177 -16.7134 0.0 0.0 0.0 0.0 0.0 
